# AST/ASF file generated using VICON BodyLanguage
# -----------------------------------------------
:version 1.10
:name VICON
:units
  mass 1.0
  length 0.45
  angle deg
:documentation
   .ast/.asf automatically generated from VICON data using
   VICON BodyBuilder and BodyLanguage model FoxedUp or BRILLIANT.MOD
:root
   order TX TY TZ RX RY RZ
   axis XYZ
   position 0 0 0  
   orientation 0 0 0 
:bonedata
  begin
     id 1 
     name lhipjoint
     direction 0.660183 -0.676772 0.325788 
     length 2.75133 
     axis 0 0 0  XYZ
  end
  begin
     id 2 
     name lfemur
     direction 0.34202 -0.939693 0  
     length 7.70317  
     axis 0 0 20  XYZ
    dof rx ry rz
    limits (-160.0 20.0)
           (-70.0 70.0)
           (-60.0 70.0)
  end
  begin
     id 3 
     name ltibia
     direction 0.342105 -0.939662 0   
     length 7.18701   
     axis 0 0 20   XYZ
    dof rx
    limits (-10.0 170.0)
  end
  begin
     id 4 
     name lfoot
     direction 0.14163 -0.389126 0.910232   
     length 2.41719   
     axis -90 7.62852e-016 20   XYZ
    dof rx rz
    limits (-45.0 90.0)
           (-70.0 20.0)
  end
  begin
     id 5 
     name ltoes
     direction 1.53533e-011 -4.21926e-011 1   
     length 1.18611   
     axis -90 7.62852e-016 20   XYZ
    dof rx
    limits (-90.0 20.0)
  end
  begin
     id 6 
     name rhipjoint
     direction -0.6658 -0.67229 0.323631   
     length 2.76968  
     axis 0 0 0  XYZ 
  end
  begin
     id 7 
     name rfemur
     direction -0.34202 -0.939693 0   
     length 7.92547   
     axis 0 0 -20   XYZ
    dof rx ry rz
    limits (-160.0 20.0)
           (-70.0 70.0)
           (-70.0 60.0)
  end
  begin
     id 8 
     name rtibia
     direction -0.342022 -0.939692 0   
     length 7.22641   
     axis 0 0 -20   XYZ
    dof rx
    limits (-10.0 170.0)
 end
 begin
     id 9 
     name rfoot
     direction -0.105675 -0.29034 0.951071   
     length 2.48149  
     axis -90 -7.62852e-016 -20   XYZ
    dof rx rz
    limits (-45.0 90.0)
           (-20.0 70.0)
  end
  begin
     id 10 
     name rtoes
     direction -1.5349e-011 -4.21859e-011 1   
     length 1.23343   
     axis -90 -7.62852e-016 -20   XYZ
    dof rx
    limits (-90.0 20.0)
  end
  begin
     id 11 
     name lowerback
     direction 0.0104173 0.993624 -0.112266   
     length 2.00527   
     axis 0 0 0   XYZ
    dof rx ry rz
    limits (-20.0 45.0)
           (-30.0 30.0)
           (-30.0 30.0)
  end
  begin
     id 12 
     name upperback
     direction 0.00733149 0.999856 -0.0152913   
     length 2.01385   
     axis 0 0 0   XYZ
    dof rx ry rz
    limits (-20.0 45.0)
           (-30.0 30.0)
           (-30.0 30.0)
  end
  begin
     id 13 
     name thorax
     direction 0.0026304 0.999318 0.036841   
     length 2.03734   
     axis 0 0 0   XYZ
    dof rx ry rz
    limits (-20.0 45.0)
           (-30.0 30.0)
           (-30.0 30.0)
  end
  begin
     id 14 
     name lowerneck
     direction 0.0293154 0.998757 0.0403082   
     length 1.65303   
     axis 0 0 0   XYZ
    dof rx ry rz
    limits (-20.0 45.0)
           (-30.0 30.0)
           (-30.0 30.0)
  end
  begin
     id 15 
     name upperneck
     direction -0.0376619 0.998184 -0.0470083   
     length 1.60926   
     axis 0 0 0   XYZ
    dof rx ry rz
    limits (-20.0 45.0)
           (-30.0 30.0)
           (-30.0 30.0)
  end
  begin
     id 16
     name head
     direction -0.0170133 0.999635 -0.0209778  
     length 1.73625  
     axis 0 0 0   XYZ
    dof rx ry rz
    limits (-20.0 45.0)
           (-30.0 30.0)
           (-30.0 30.0)
  end
  begin
     id 17 
     name lclavicle
     direction 0.919857 0.39181 -0.0186333  
     length 3.75313  
     axis 0 0 0   XYZ
    dof ry rz
    limits (-20.0 10.0)
           (0.0 20.0)
  end
  begin
     id 18 
     name lhumerus
     direction 1 -4.48988e-011 1.44029e-027   
     length 5.49313   
     axis 180 -30 -90   XYZ
    dof rx ry rz
    limits (-60.0 90.0)
           (-90.0 90.0)
           (-90.0 90.0)
  end
  begin
     id 19
     name lradius
     direction 1 -4.48924e-011 7.46281e-027   
     length 3.29037   
     axis 180 -30 -90   XYZ
    dof rx
    limits (-10.0 170.0)
  end
  begin
     id 20
     name lwrist
     direction 1 -4.48955e-011 2.19879e-026   
     length 1.64519   
     axis -1.34358e-014 90 90   XYZ
    dof ry
    limits (-180.0 0.0)
 end
  begin
     id 21 
     name lhand
     direction 1 -4.48978e-011 4.39747e-026   
     length 0.729656   
     axis -2.80598e-014 90 90   XYZ
    dof rx rz
    limits (-90.0 90.0)
           (-45.0 45.0)
  end
  begin
     id 22 
     name lfingers
     direction 1 -4.49071e-011 8.79411e-026   
     length 0.588268   
     axis -5.61193e-014 90 90   XYZ
    dof rx
    limits (0.0 90.0)
  end
  begin
     id 23
     name lthumb
     direction 0.707107 -6.34817e-011 0.707107   
     length 0.844638   
     axis -90 45 -9.86923e-015   XYZ
    dof rx rz
    limits (-45.0 45.0)
           (-45.0 45.0)
  end
  begin
     id 24 
     name rclavicle
     direction -0.919898 0.388279 0.0550233   
     length 3.7171  
     axis 0 0 0   XYZ 
    dof ry rz
    limits (-10.0 20.0)
           (-20.0 0.0)
  end
  begin
     id 25 
     name rhumerus
     direction -1 -4.48968e-011 9.98372e-028  
     length 5.23684   
     axis 180 30 90   XYZ
    dof rx ry rz
    limits (-90.0 60.0)
           (-90.0 90.0)
           (-90.0 90.0)
  end
  begin
     id 26 
     name rradius
     direction -1 -4.48956e-011 1.01023e-026   
     length 3.38251   
     axis 180 30 90   XYZ
    dof rx
    limits (-10.0 170.0)
  end
  begin
     id 27 
     name rwrist
     direction -1 -4.4892e-011 2.19886e-026   
     length 1.69126   
     axis -1.34358e-014 -90 -90   XYZ
    dof ry
    limits (-180.0 0.0)
  end
  begin
     id 28
     name rhand
     direction -1 -4.49024e-011 4.39727e-026   
     length 0.691454   
     axis -2.80598e-014 -90 -90   XYZ
    dof rx rz
    limits (-90.0 90.0)
           (-45.0 45.0)
  end
  begin
     id 29
     name rfingers
     direction -1 -4.49097e-011 8.79388e-026   
     length 0.557468   
     axis -5.61193e-014 -90 -90   XYZ
    dof rx
    limits (0.0 90.0)
  end
  begin
     id 30
     name rthumb
     direction -0.707107 -6.34938e-011 0.707107   
     length 0.800416   
     axis -90 -45 9.86923e-015   XYZ
    dof rx rz
    limits (-45.0 45.0)
           (-45.0 45.0)
  end
:hierarchy
  begin
    root lhipjoint rhipjoint lowerback
    lhipjoint lfemur
    lfemur ltibia
    ltibia lfoot
    lfoot ltoes
    rhipjoint rfemur
    rfemur rtibia
    rtibia rfoot
    rfoot rtoes
    lowerback upperback
    upperback thorax
    thorax lowerneck lclavicle rclavicle
    lowerneck upperneck
    upperneck head
    lclavicle lhumerus
    lhumerus lradius
    lradius lwrist
    lwrist lhand lthumb
    lhand lfingers
    rclavicle rhumerus
    rhumerus rradius
    rradius rwrist
    rwrist rhand rthumb
    rhand rfingers
  end

#!OML:ASF H:\BabyWalks\Project 1\Capture day 1\Session 1\baby.ASF
:FULLY-SPECIFIED
:DEGREES
17
root -37.0103 17.2436 -3.78026 -21.934 79.4417 -27.3215
lowerback 17.5804 0.344093 1.43895
upperback 5.15631 1.06219 1.82964
thorax -4.33637 0.623931 0.890053
lowerneck -0.565111 1.71466 4.14272
upperneck -16.5354 2.23084 -4.75894
head -4.75104 1.29294 -2.26492
rclavicle -1.06226e-014 -1.49585e-014
rhumerus -51.7495 18.991 -90.6807
rradius 44.081
rwrist -5.60097
rhand -11.1674 -17.667
rfingers 7.12502
rthumb 14.8592 -47.1142
lclavicle -1.06226e-014 -1.49585e-014
lhumerus -52.1303 -17.1233 90.8427
lradius 52.6178
lwrist 7.62299
lhand 1.46578 11.97
lfingers 7.12502
lthumb 26.9936 40.0614
rfemur -0.415917 9.51794 29.1943
rtibia 22.803
rfoot -28.5372 -7.14127
rtoes 5.63334
lfemur -31.2583 -2.55766 -9.95194
ltibia 43.0277
lfoot -13.4611 -18.9185
ltoes 20.9389
18
root -36.9921 17.228 -3.7829 -22.3769 79.4456 -27.8075
lowerback 17.5733 0.358764 1.47287
upperback 5.11305 1.08509 1.81776
thorax -4.37794 0.633887 0.853319
lowerneck -0.514437 1.673 4.06419
upperneck -16.5476 2.18834 -4.63669
head -4.76825 1.26969 -2.21322
rclavicle 6.85807e-015 1.88845e-015
rhumerus -51.7281 18.8531 -90.6602
rradius 43.8254
rwrist -5.41023
rhand -11.2277 -17.7613
rfingers 7.12502
rthumb 14.8011 -47.2127
lclavicle 6.85807e-015 1.88845e-015
lhumerus -52.057 -17.0098 90.8838
lradius 52.2022
lwrist 7.21955
lhand 1.49471 11.9022
lfingers 7.12502
lthumb 27.0213 39.9893
rfemur -0.392643 9.41415 29.2593
rtibia 22.8667
rfoot -28.657 -7.13271
rtoes 5.42167
lfemur -31.459 -2.52199 -9.89663
ltibia 43.4649
lfoot -13.8026 -19.001
ltoes 20.6546
19
root -36.9701 17.2139 -3.78581 -22.9301 79.4564 -28.4011
lowerback 17.5542 0.369548 1.51413
upperback 5.07213 1.10442 1.81376
thorax -4.41061 0.64214 0.821637
lowerneck -0.513486 1.63132 3.97788
upperneck -16.5291 2.14456 -4.51324
head -4.76777 1.24578 -2.15863
rclavicle -1.13556e-014 2.68359e-015
rhumerus -51.7005 18.7125 -90.6274
rradius 43.5635
rwrist -5.2117
rhand -11.2789 -17.85
rfingers 7.12502
rthumb 14.7518 -47.305
lclavicle -1.13556e-014 2.68359e-015
lhumerus -51.9516 -16.8618 90.9014
lradius 51.7795
lwrist 6.7656
lhand 1.53296 11.8219
lfingers 7.12502
lthumb 27.0578 39.9033
rfemur -0.296728 9.3046 29.3394
rtibia 22.8163
rfoot -28.7311 -7.12653
rtoes 5.21315
lfemur -31.629 -2.5078 -9.82891
ltibia 43.877
lfoot -14.1538 -19.077
ltoes 20.3666
20
root -36.9438 17.2019 -3.78905 -23.6368 79.4745 -29.1466
lowerback 17.513 0.379903 1.57899
upperback 5.02073 1.12647 1.81289
thorax -4.44232 0.651354 0.779502
lowerneck -0.458584 1.58406 3.88414
upperneck -16.5318 2.09597 -4.37405
head -4.78327 1.21926 -2.09874
rclavicle -2.88238e-015 -3.13086e-015
rhumerus -51.7045 18.5419 -90.595
rradius 43.3059
rwrist -5.00108
rhand -11.3195 -17.9273
rfingers 7.12502
rthumb 14.7127 -47.3852
lclavicle -2.88238e-015 -3.13086e-015
lhumerus -51.8534 -16.701 90.901
lradius 51.3619
lwrist 6.27395
lhand 1.57425 11.7437
lfingers 7.12502
lthumb 27.0974 39.819
rfemur -0.126392 9.18016 29.4401
rtibia 22.6441
rfoot -28.7489 -7.11426
rtoes 4.99165
lfemur -31.7665 -2.51954 -9.74141
ltibia 44.2593
lfoot -14.5056 -19.1453
ltoes 20.1643
21
root -36.9131 17.1931 -3.79256 -24.5158 79.4994 -30.0595
lowerback 17.4584 0.382717 1.65993
upperback 4.97369 1.14184 1.82237
thorax -4.46214 0.657398 0.740771
lowerneck -0.470084 1.53429 3.80591
upperneck -16.4922 2.0404 -4.25435
head -4.77432 1.18894 -2.04574
rclavicle -1.60519e-014 4.47266e-016
rhumerus -51.7067 18.3773 -90.5541
rradius 43.0539
rwrist -4.79019
rhand -11.3518 -17.9743
rfingers 7.12502
rthumb 14.6816 -47.4344
lclavicle -1.60519e-014 4.47266e-016
lhumerus -51.7347 -16.4958 90.872
lradius 50.9606
lwrist 5.75984
lhand 1.61259 11.6561
lfingers 7.12502
lthumb 27.134 39.7257
rfemur 0.112233 9.0469 29.5625
rtibia 22.3476
rfoot -28.6807 -7.09541
rtoes 4.70109
lfemur -31.8624 -2.55867 -9.63256
ltibia 44.6059
lfoot -14.8588 -19.2076
ltoes 19.9894
22
root -36.8781 17.1858 -3.79649 -25.5623 79.5348 -31.1328
lowerback 17.3864 0.383694 1.7604
upperback 4.91708 1.15754 1.83522
thorax -4.48247 0.663266 0.694627
lowerneck -0.45379 1.47455 3.75352
upperneck -16.45 1.9707 -4.14719
head -4.76918 1.15072 -2.0007
rclavicle 5.31749e-015 -1.22253e-014
rhumerus -51.7463 18.1939 -90.5203
rradius 42.8148
rwrist -4.57811
rhand -11.3781 -17.9958
rfingers 7.12502
rthumb 14.6562 -47.4579
lclavicle 5.31749e-015 -1.22253e-014
lhumerus -51.639 -16.2776 90.8266
lradius 50.5883
lwrist 5.24722
lhand 1.64023 11.5755
lfingers 7.12502
lthumb 27.1605 39.6409
rfemur 0.437881 8.89115 29.7046
rtibia 21.9206
rfoot -28.5494 -7.07684
rtoes 4.34976
lfemur -31.9218 -2.6316 -9.5059
ltibia 44.9225
lfoot -15.2161 -19.2645
ltoes 19.8354
23
root -36.8387 17.1805 -3.80063 -26.7877 79.5814 -32.3735
lowerback 17.3069 0.375769 1.86801
upperback 4.86666 1.16341 1.85818
thorax -4.49222 0.664517 0.657335
lowerneck -0.496695 1.41282 3.71149
upperneck -16.3693 1.89598 -4.04988
head -4.74211 1.10952 -1.95904
rclavicle -8.19987e-015 -8.74653e-015
rhumerus -51.786 18.0278 -90.4849
rradius 42.5912
rwrist -4.37061
rhand -11.3955 -17.9935
rfingers 7.12502
rthumb 14.6395 -47.4567
lclavicle -8.19987e-015 -8.74653e-015
lhumerus -51.5341 -16.0225 90.7576
lradius 50.2509
lwrist 4.75727
lhand 1.65844 11.5041
lfingers 7.12502
lthumb 27.1779 39.5668
rfemur 0.852078 8.72634 29.8693
rtibia 21.363
rfoot -28.3207 -7.07151
rtoes 3.88341
lfemur -31.9396 -2.73873 -9.36211
ltibia 45.2102
lfoot -15.5775 -19.3202
ltoes 19.6986
24
root -36.7952 17.1759 -3.80511 -28.1452 79.632 -33.7399
lowerback 17.2121 0.368232 1.98593
upperback 4.8029 1.17061 1.8819
thorax -4.50772 0.665955 0.614831
lowerneck -0.480899 1.34641 3.66217
upperneck -16.3052 1.81921 -3.92455
head -4.73046 1.06625 -1.90833
rclavicle 5.71506e-015 3.08116e-015
rhumerus -51.8741 17.8569 -90.4677
rradius 42.3952
rwrist -4.1766
rhand -11.4016 -17.9698
rfingers 7.12502
rthumb 14.6336 -47.4335
lclavicle 5.71506e-015 3.08116e-015
lhumerus -51.4696 -15.7666 90.6792
lradius 49.9577
lwrist 4.30897
lhand 1.65877 11.444
lfingers 7.12502
lthumb 27.1782 39.5067
rfemur 1.35309 8.55047 30.0493
rtibia 20.6774
rfoot -28.0331 -7.07159
rtoes 3.36639
lfemur -31.9262 -2.87139 -9.20619
ltibia 45.4744
lfoot -15.9468 -19.3748
ltoes 19.5637
25
root -36.748 17.1718 -3.80995 -29.6054 79.6907 -35.2001
lowerback 17.1123 0.354148 2.09735
upperback 4.74049 1.16821 1.91065
thorax -4.51931 0.662758 0.583398
lowerneck -0.524699 1.27725 3.61514
upperneck -16.1932 1.73763 -3.79521
head -4.69414 1.01966 -1.85532
rclavicle -7.00716e-015 -7.05686e-015
rhumerus -51.9719 17.7229 -90.4638
rradius 42.2239
rwrist -4.00821
rhand -11.3965 -17.9397
rfingers 7.12502
rthumb 14.6385 -47.403
lclavicle -7.00716e-015 -7.05686e-015
lhumerus -51.4107 -15.4907 90.5866
lradius 49.7104
lwrist 3.91812
lhand 1.64789 11.3957
lfingers 7.12502
lthumb 27.1678 39.46
rfemur 1.9397 8.36303 30.2364
rtibia 19.8724
rfoot -27.685 -7.08424
rtoes 2.76405
lfemur -31.8822 -3.03135 -9.04803
ltibia 45.7153
lfoot -16.3232 -19.4273
ltoes 19.4142
